# xmcd
# Track frame offsets:
# 150
# 15099
# 31694
# 49698
# 67608
# 84724
# 100161
# 123437
# 139195
# 155335
# 172878
# 190231
#
# Disc length: 2798 seconds
# Revision: 0
# Processed by: cddbd v1.5.2PL0 Copyright (c) Steve Scherf et al.
# Submitted via: VisiTrax 2.10.3.257 - For more info visit www.synapsa.com
#
DISCID=850aec0c
DTITLE=Lee Ann Womack - Call me Crazy
DYEAR=2008
DGENRE=
TTITLE0=Last Call
TTITLE1=Either Way
TTITLE2=Solitary Thinkin´
TTITLE3=New Again
TTITLE4=I Found It In You
TTITLE5=Have You Seen That Girl
TTITLE6=The Bees
TTITLE7=I Think I Know
TTITLE8=If These Walls Could Talk
TTITLE9=Everything But Quits ( with George Strait)
TTITLE10=The King Of Broken Heart
TTITLE11=The Story Of My Life
EXTD=
EXTT0=
EXTT1=
EXTT2=
EXTT3=
EXTT4=
EXTT5=
EXTT6=
EXTT7=
EXTT8=
EXTT9=
EXTT10=
EXTT11=
PLAYORDER=
